<?xml version="1.0" encoding="utf-8"?>
<!-- Generator: Adobe Illustrator 21.0.0, SVG Export Plug-In . SVG Version: 6.00 Build 0)  -->
<svg version="1.1" xmlns="http://www.w3.org/2000/svg" xmlns:xlink="http://www.w3.org/1999/xlink" x="0px" y="0px"
	 viewBox="0 0 1024 1024" style="enable-background:new 0 0 1024 1024;" xml:space="preserve">
<style type="text/css">
	.st0{fill:#FFFFFF;}
	.st1{fill:#FFFFFF;stroke:#FFFFFF;stroke-width:3;stroke-miterlimit:10;}
	.st2{fill:none;stroke:#FFFFFF;stroke-width:17.9165;stroke-miterlimit:10;}
</style>
<g id="Livello_2">
</g>
<g id="Livello_1">
	<path class="st0" d="M789.3,736.1c-37,0.1-73.9,0.4-110.9-0.4c-18.6-0.4-34.5,2.4-45.5,18.7c-0.1,0.1-0.2,0.3-0.4,0.4
		c-2.7,3-5.2,3.7-7.6-0.3c-2.1-3.5-4.4-6.9-6.5-10.5c-5.9-10.2-11-20.9-17.7-30.6c-7.3-10.7-20.1-9.7-26.9,1.3
		c-1.4,2.2-2.5,4.8-3.3,7.3c-8.1,25.6-16,51.2-24.1,76.8c-2.4,7.7-4.9,15.3-7.3,22.9c-2.2-4.6-3.2-8.9-4.1-13.3
		c-8.8-42.6-17.6-85.2-26.4-127.8c-2.9-14.2-5.9-28.4-9.1-42.5c-1.3-5.7-4.5-10.5-11-10.8c-6-0.3-9.3,3.8-11.5,8.9
		c-1.1,2.4-1.9,5-2.7,7.6c-11.3,38.1-22.5,76.2-33.8,114.3c-0.5,1.7-1.5,3.3-3,6.7c-3.3-6.4-5.9-11.2-8.4-16
		c-6.6-12.5-12.4-25.4-20-37.3c-7.8-12.4-21.3-11.7-29.2,0.6c-3.5,5.4-5.9,11.6-10,16.5c-2.8,3.4-7.4,7-11.4,7.2
		c-11.9,0.8-24,0.1-36-0.1c-5.6,0-11.2,0-16.8,0c-20.1,0-40.1,0.1-60.2,0.1c-6.7,0-10.2,2.7-10,7.8c0.3,6.5,4.6,7.6,10,7.6
		c34-0.1,68.1-0.4,102.1,0.2c17,0.3,30.7-3.4,38.3-20.1c2.1-4.7,5.4-8.9,8.8-14.2c2.7,4.3,4.8,7.4,6.5,10.7
		c7.1,13.7,13.7,27.6,21.2,41c2.2,3.9,6.4,7.5,10.5,9.3c9.1,3.9,18-2.2,21.6-14.3c7.7-25.9,15.2-51.8,22.9-77.8
		c3-10.3,6.1-20.5,9.4-31.2c0.8,1,1.1,1.2,1.2,1.5c12,58,24,116,36,174c0.9,4.2,1.9,8.5,3.7,12.3c4,8.6,14.2,9.2,19.2,1.1
		c1.9-3,3.3-6.4,4.3-9.8c10.7-34.1,21.3-68.3,32-102.5c1-3.2,2.6-6.3,4.5-11c2.7,4.6,4.5,7.6,6.3,10.6c7,11.8,13.2,24.2,21.3,35.2
		c7,9.6,17.6,9.2,26.1,0.9c2.8-2.8,5.6-5.6,8.2-8.5c4.4-5.2,9.4-8.1,16.7-7.6c9.8,0.6,19.7,0.1,29.5,0.2c18.1,0.1,36.1,0.2,54.2,0.4
		c6,0,11.9,0,17.9-0.1c2.1-0.2,4.3-0.5,6.4-0.5c5,0,9.9,0,14.9,0V736.1z"/>
	<path class="st1" d="M693.9,446.7c0-7.3-1.5-8.7-8.9-8.7c-34.4,0-68.7-0.1-103.1,0.1c-4.1,0-5.2-1-5.2-5.1
		c0.2-34.7,0.1-69.3,0.1-104c0-6.6-1.7-8.2-8.1-8.2c-37.6,0-75.2,0-112.9,0c-6.8,0-8.6,1.9-8.5,8.8c0.1,34.6,0.1,69.3,0.2,103.9
		c0,3.8-1.1,4.7-4.8,4.6c-34.8-0.1-69.6-0.1-104.4-0.1c-6.4,0-8.1,1.5-8.1,7.7c0,16.3,0,32.6,0,48.9c0,4.3,1.7,7.5,6.3,7.4
		c4.6-0.1,6.2-3.3,6.2-7.6c-0.1-12.9,0.1-25.8-0.2-38.6c-0.1-4.3,1.1-5.5,5.4-5.4c34.9,0.2,69.9,0.1,104.8,0.1c4.7,0,7-2.3,7-6.7
		c0.1-11.5,0-23,0-34.6c0-23.7,0.1-47.3-0.1-71c0-4.3,1.5-5.1,5.4-5c31.5,0.1,63.1,0.1,94.6,0c3.7,0,4.7,1,4.7,4.7
		c-0.1,34.2-0.1,68.4-0.1,102.6c0,8.8,1.2,9.9,10.1,9.9c34.1,0,68.1,0.1,102.2-0.1c3.8,0,5.1,0.8,5.1,4.9c-0.2,31.5-0.2,63.1,0,94.6
		c0,4.4-1.4,5.4-5.6,5.4c-34.1-0.2-68.1-0.1-102.2-0.1c-8.4,0-9.6,1.2-9.6,9.5c0,33.9,0,67.8,0,101.7c0,0.7,0,1.4,0,2.2h12.5
		c0-31.8,0.1-63.6-0.1-95.4c0-4.5,1.1-5.7,5.6-5.6c34.4,0.2,68.7,0.1,103.1,0.1c6.4,0,8.6-2.1,8.6-8
		C693.9,521.9,693.9,484.3,693.9,446.7z"/>
	<line class="st2" x1="235.7" y1="338.5" x2="235.8" y2="751.3"/>
	<line class="st2" x1="789.3" y1="338.5" x2="789.4" y2="751.3"/>
	<path class="st0" d="M521.1,162.9L191.9,372.5c-3.4,2.2-8,1.2-10.2-2.3l-2-3.2c-2.2-3.4-1.2-8,2.3-10.2l329.2-209.6L521.1,162.9z"
		/>
	<path class="st0" d="M501.1,162.9l329.2,209.6c3.4,2.2,8,1.2,10.2-2.3l2-3.2c2.2-3.4,1.2-8-2.3-10.2L511,147.3L501.1,162.9z"/>
</g>
</svg>
